<svg width="16" height="9" viewBox="0 0 16 9" fill="none" xmlns="http://www.w3.org/2000/svg">
<path d="M14.825 0.362549C14.6375 0.175049 14.4155 0.0812988 14.159 0.0812988C13.903 0.0812988 13.6813 0.175049 13.4938 0.362549L8 5.8563L2.4875 0.343799C2.3125 0.168799 2.09375 0.0812988 1.83125 0.0812988C1.56875 0.0812988 1.34375 0.175049 1.15625 0.362549C0.96875 0.550049 0.875 0.772049 0.875 1.02855C0.875 1.28455 0.96875 1.5063 1.15625 1.6938L7.475 7.9938C7.55 8.0688 7.63125 8.12205 7.71875 8.15355C7.80625 8.18455 7.9 8.20005 8 8.20005C8.1 8.20005 8.19375 8.18455 8.28125 8.15355C8.36875 8.12205 8.45 8.0688 8.525 7.9938L14.8438 1.67505C15.0188 1.50005 15.1063 1.28455 15.1063 1.02855C15.1063 0.772049 15.0125 0.550049 14.825 0.362549Z" fill="black"/>
</svg>
