<svg width="125" height="296" viewBox="0 0 125 296" fill="none" xmlns="http://www.w3.org/2000/svg">
<circle cx="106.882" cy="261.92" r="3.52358" transform="rotate(-180 106.882 261.92)" fill="#A47C51"/>
<circle cx="55.2025" cy="261.92" r="3.52358" transform="rotate(-180 55.2025 261.92)" fill="#A47C51"/>
<circle cx="3.52329" cy="261.92" r="3.52358" transform="rotate(-180 3.52329 261.92)" fill="#A47C51"/>
<circle cx="106.882" cy="210.24" r="3.52358" transform="rotate(-180 106.882 210.24)" fill="#A47C51"/>
<circle cx="55.2025" cy="210.24" r="3.52358" transform="rotate(-180 55.2025 210.24)" fill="#A47C51"/>
<circle cx="3.52329" cy="210.24" r="3.52358" transform="rotate(-180 3.52329 210.24)" fill="#A47C51"/>
<circle cx="106.882" cy="158.561" r="3.52358" transform="rotate(-180 106.882 158.561)" fill="#A47C51"/>
<circle cx="55.2025" cy="158.561" r="3.52358" transform="rotate(-180 55.2025 158.561)" fill="#A47C51"/>
<circle cx="3.52329" cy="158.561" r="3.52358" transform="rotate(-180 3.52329 158.561)" fill="#A47C51"/>
<circle cx="106.882" cy="106.882" r="3.52358" transform="rotate(-180 106.882 106.882)" fill="#A47C51"/>
<circle cx="55.2025" cy="106.882" r="3.52358" transform="rotate(-180 55.2025 106.882)" fill="#A47C51"/>
<circle cx="3.52329" cy="106.882" r="3.52358" transform="rotate(-180 3.52329 106.882)" fill="#A47C51"/>
<circle cx="106.882" cy="55.2027" r="3.52358" transform="rotate(-180 106.882 55.2027)" fill="#A47C51"/>
<circle cx="55.2025" cy="55.2027" r="3.52358" transform="rotate(-180 55.2025 55.2027)" fill="#A47C51"/>
<circle cx="3.52329" cy="55.2027" r="3.52358" transform="rotate(-180 3.52329 55.2027)" fill="#A47C51"/>
<circle cx="106.882" cy="3.52354" r="3.52358" transform="rotate(-180 106.882 3.52354)" fill="#A47C51"/>
<circle cx="55.2025" cy="3.52354" r="3.52358" transform="rotate(-180 55.2025 3.52354)" fill="#A47C51"/>
<circle cx="3.52329" cy="3.52354" r="3.52358" transform="rotate(-180 3.52329 3.52354)" fill="#A47C51"/>
</svg>
