<svg width="325" height="176" viewBox="0 0 325 176" fill="none" xmlns="http://www.w3.org/2000/svg">
<circle cx="11.2028" cy="158.561" r="3.52358" transform="rotate(-90 11.2028 158.561)" fill="#A47C51"/>
<circle cx="11.2028" cy="106.882" r="3.52358" transform="rotate(-90 11.2028 106.882)" fill="#A47C51"/>
<circle cx="11.2028" cy="55.2027" r="3.52358" transform="rotate(-90 11.2028 55.2027)" fill="#A47C51"/>
<circle cx="11.2028" cy="3.52354" r="3.52358" transform="rotate(-90 11.2028 3.52354)" fill="#A47C51"/>
<circle cx="62.882" cy="158.561" r="3.52358" transform="rotate(-90 62.882 158.561)" fill="#A47C51"/>
<circle cx="62.882" cy="106.882" r="3.52358" transform="rotate(-90 62.882 106.882)" fill="#A47C51"/>
<circle cx="62.882" cy="55.2027" r="3.52358" transform="rotate(-90 62.882 55.2027)" fill="#A47C51"/>
<circle cx="62.882" cy="3.52354" r="3.52358" transform="rotate(-90 62.882 3.52354)" fill="#A47C51"/>
<circle cx="114.561" cy="158.561" r="3.52358" transform="rotate(-90 114.561 158.561)" fill="#A47C51"/>
<circle cx="114.561" cy="106.882" r="3.52358" transform="rotate(-90 114.561 106.882)" fill="#A47C51"/>
<circle cx="114.561" cy="55.2027" r="3.52358" transform="rotate(-90 114.561 55.2027)" fill="#A47C51"/>
<circle cx="114.561" cy="3.52354" r="3.52358" transform="rotate(-90 114.561 3.52354)" fill="#A47C51"/>
<circle cx="166.24" cy="158.561" r="3.52358" transform="rotate(-90 166.24 158.561)" fill="#A47C51"/>
<circle cx="166.24" cy="106.882" r="3.52358" transform="rotate(-90 166.24 106.882)" fill="#A47C51"/>
<circle cx="166.24" cy="55.2027" r="3.52358" transform="rotate(-90 166.24 55.2027)" fill="#A47C51"/>
<circle cx="166.24" cy="3.52354" r="3.52358" transform="rotate(-90 166.24 3.52354)" fill="#A47C51"/>
<circle cx="217.92" cy="158.561" r="3.52358" transform="rotate(-90 217.92 158.561)" fill="#A47C51"/>
<circle cx="217.92" cy="106.882" r="3.52358" transform="rotate(-90 217.92 106.882)" fill="#A47C51"/>
<circle cx="217.92" cy="55.2027" r="3.52358" transform="rotate(-90 217.92 55.2027)" fill="#A47C51"/>
<circle cx="217.92" cy="3.52354" r="3.52358" transform="rotate(-90 217.92 3.52354)" fill="#A47C51"/>
<circle cx="269.599" cy="158.561" r="3.52358" transform="rotate(-90 269.599 158.561)" fill="#A47C51"/>
<circle cx="269.599" cy="106.882" r="3.52358" transform="rotate(-90 269.599 106.882)" fill="#A47C51"/>
<circle cx="269.599" cy="55.2027" r="3.52358" transform="rotate(-90 269.599 55.2027)" fill="#A47C51"/>
<circle cx="269.599" cy="3.52354" r="3.52358" transform="rotate(-90 269.599 3.52354)" fill="#A47C51"/>
<circle cx="321.278" cy="158.561" r="3.52358" transform="rotate(-90 321.278 158.561)" fill="#A47C51"/>
<circle cx="321.278" cy="106.882" r="3.52358" transform="rotate(-90 321.278 106.882)" fill="#A47C51"/>
<circle cx="321.278" cy="55.2027" r="3.52358" transform="rotate(-90 321.278 55.2027)" fill="#A47C51"/>
<circle cx="321.278" cy="3.52354" r="3.52358" transform="rotate(-90 321.278 3.52354)" fill="#A47C51"/>
</svg>
