<svg width="24" height="24" viewBox="0 0 24 24" fill="none" xmlns="http://www.w3.org/2000/svg">
<path d="M22.7068 17.6047L20.3762 15.2741C19.9543 14.8525 19.426 14.5533 18.8475 14.4084C18.269 14.2635 17.6621 14.2784 17.0913 14.4513C16.5206 14.6243 16.0076 14.949 15.6069 15.3907C15.2062 15.8324 14.9329 16.3746 14.8162 16.9594C10.9728 16.2407 7.23482 12.5181 7.00215 9.19073C7.65554 9.07054 8.25686 8.7543 8.72615 8.28406C9.34405 7.66608 9.69118 6.82797 9.69118 5.95406C9.69118 5.08016 9.34405 4.24205 8.72615 3.62406L6.39615 1.2934C5.77817 0.675496 4.94005 0.328369 4.06615 0.328369C3.19225 0.328369 2.35413 0.675496 1.73615 1.2934C-5.25452 8.28406 15.7162 29.2547 22.7068 22.2641C23.3244 21.646 23.6712 20.8081 23.6712 19.9344C23.6712 19.0607 23.3244 18.2228 22.7068 17.6047Z" fill="white"/>
</svg>
